<?xml version="1.0" encoding="UTF-8"?>
<svg width="1200pt" height="1300pt" version="1.1" viewBox="0 0 1200 1200" xmlns="http://www.w3.org/2000/svg">
 <path d="m726.61 699v75.703h180.71c12.797 0 23.156 10.359 23.156 23.156v343.78h84.141c12.797 0 23.156 10.359 23.156 23.156s-10.359 23.156-23.156 23.156h-829.31c-12.797 0-23.156-10.359-23.156-23.156s10.359-23.156 23.156-23.156h84.141v-273.71c0-12.797 10.359-23.156 23.156-23.156h183.74v-145.82h-12.797c-12.797 0-23.156-10.359-23.156-23.156v-111.33c0-12.797 10.359-23.156 23.156-23.156h52.453v-118.12c-21.656-10.031-41.25-23.812-57.938-40.547-9.2344-9.2344-17.578-19.312-24.891-30.188-202.31-17.438-150.14-235.64-145.31-254.16 2.1562-10.547 11.484-18.469 22.688-18.469h88.547v-44.766c0-12.797 10.359-23.156 23.156-23.156h355.45c12.797 0 23.156 10.359 23.156 23.156v44.766h88.547c11.203 0 20.531 7.9219 22.688 18.469 4.7812 18.562 57 236.72-145.31 254.16-7.3125 10.828-15.609 20.953-24.891 30.188-16.688 16.688-36.281 30.516-57.938 40.547v118.12h52.453c12.797 0 23.156 10.359 23.156 23.156v111.33c0 12.797-10.359 23.156-23.156 23.156h-9.75zm74.25-572.81v114.66c0 21.094-3.2812 41.438-9.375 60.609 95.766-26.391 86.812-133.13 79.266-175.22h-69.891zm-392.34 175.22c-6.0938-19.125-9.375-39.516-9.375-60.609v-114.66h-69.891c-7.5469 42.094-16.453 148.82 79.266 175.22zm114.19 397.6v442.64h157.6v-442.64zm190.5-111.38h-226.45v65.062h226.45zm-150.84-46.312h75.234v-103.22c-12.188 2.3438-24.75 3.5625-37.641 3.5625-12.844 0-25.406-1.2188-37.641-3.5625v103.22zm192.19-483.1h-309.14v182.58c0 42.469 17.391 81.094 45.375 109.17 15.75 15.75 34.875 28.172 56.156 36l0.28125 0.14063c16.453 6 34.219 9.3281 52.734 9.3281 42.469 0 81.141-17.391 109.17-45.422s45.375-66.656 45.375-109.12v-182.58zm129.66 1083.4v-320.68h-157.6v320.68zm-568.4 0h160.6v-250.55h-160.6z" stroke="black" stroke-width="30"/>
</svg>
