<?xml version="1.0" encoding="UTF-8"?>
<svg width="1400pt" height="1400pt" version="1.1" viewBox="-50 0 1300 1200" xmlns="http://www.w3.org/2000/svg">
 <path d="m574.31 188.06c25.547 14.156 108.14 24.141 155.06 28.781 1.4531 0.14062 2.8594 0.23438 4.3125 0.23438 14.391 0 28.078-7.0781 36.375-18.938 9.2344-13.219 10.547-29.766 3.6094-44.156-18.891-38.906-66.281-83.297-185.68-73.828-17.062 1.3125-31.219 13.547-35.297 30.234-9 37.312-1.3125 64.922 21.609 77.672zm10.312-69.984c0.70312-2.8594 3-4.9219 5.8594-5.1562 79.781-6.375 132.94 12.844 153.47 55.312 2.5312 5.1562 0.14062 9.375-0.9375 11.062-1.2188 1.6875-4.5469 5.5312-10.547 4.9219-72.234-7.2188-128.06-16.922-142.31-24.844-12.234-6.8438-7.9219-31.219-5.5312-41.297z" stroke="black" stroke-width="50"/>
 <path d="m864.37 677.76c0-52.453-42.703-95.062-95.156-95.062s-95.156 42.703-95.156 95.062c0 52.453 42.703 95.156 95.156 95.156 52.406 0 95.156-42.703 95.156-95.156zm-157.31 0c0-34.312 27.938-62.297 62.297-62.297 34.312 0 62.297 27.938 62.297 62.297 0 34.312-27.938 62.297-62.297 62.297-34.359-0.14062-62.297-28.125-62.297-62.297z" stroke="black" stroke-width="50"/>
 <path d="m845.76 1061.2c45.938-66.375 82.219-126.84 108.61-181.08l7.4531-7.4531c96.469-96.609 149.63-225 149.63-361.31 0-281.86-229.45-511.31-511.45-511.31-60.703 0-120.37 10.547-177.37 31.547-96.938 35.859-180 99.703-240.14 184.45-61.453 86.625-93.938 188.86-93.938 295.45 0 71.391 14.391 140.16 42.609 204.71 0.14062 0.23438 0.14062 0.375 0.23438 0.60938 29.156 66.609 73.312 127.45 127.92 176.06 93.844 83.859 214.78 130.08 340.69 130.08 18.469 0 36.938-1.0781 55.078-3 8.8594 13.547 18.141 27.375 27.938 41.391-57 6.1406-153.24 23.625-153.24 71.625 0 52.219 121.69 75.938 234.61 75.938 113.06 0 234.61-23.766 234.61-75.938 0-48.141-96.234-65.625-153.24-71.766zm-291.14-363.24c0-93.141 60.844-172.22 144.84-199.55 20.391-6.6094 42.234-10.219 64.781-10.219 7.7812 0 15.469 0.375 23.062 1.3125 104.86 11.531 186.71 100.69 186.71 208.45 0 41.156-14.625 93.141-42.938 154.31 0 0.14062-0.14062 0.14062-0.14062 0.23438 0 0.14062 0 0.14062-0.14063 0.23438-32.297 69.469-82.453 150.84-149.29 241.78-4.0781 5.5312-10.312 8.7656-17.297 8.7656-6.8438 0-13.219-3.2344-17.297-8.7656-125.68-171.42-192.28-308.48-192.28-396.56zm437.9 87.141c9.6094-32.156 14.531-61.219 14.531-87.141 0-117.7-84.375-216.14-195.71-237.94 3.9375-9 6.1406-18.844 6.1406-29.297 0-13.688-3.7031-26.391-10.922-38.156-0.14062-0.14062-0.14062-0.375-0.23438-0.46875-0.14062-0.23438-0.23438-0.375-0.375-0.60938-5.7656-9.6094-6.375-20.766-1.4531-30.844s14.531-16.781 25.781-18.141c55.219-6.2344 125.63-0.70312 147.84 61.219 16.781 46.922 51.234 76.312 99.844 85.547 0.375 7.3125 0.60938 14.766 0.60938 22.219-0.046875 99.234-30.281 193.92-86.062 273.61zm-591.84-708.84c-3.375 25.922 4.0781 58.547 36 96.703 51.844 62.062 74.062 120.94 62.625 165.71-9 35.391-38.859 63.234-88.453 82.781-1.5469 0.60938-7.5469 1.7812-12.703 2.8594-33.609 7.0781-103.69 21.844-129.94 62.391-9.7031 15-12.609 31.688-8.7656 49.688 4.5469 21.141 12.141 74.531-17.062 113.16-17.766 23.531-46.547 37.547-85.547 42.141-23.391-57.141-35.391-117.7-35.391-180.47 0-187.03 110.86-357.56 279.24-434.95zm-229.82 647.02c43.219-6.9375 76.078-24.938 97.781-53.766 37.312-49.547 28.453-114.38 22.922-139.92-2.0625-9.375-0.70312-17.297 4.2188-24.844 18.844-29.062 82.078-42.469 109.08-48.141 9.6094-2.0625 14.391-3.1406 17.859-4.4531 60.141-23.625 96.609-59.062 108.38-105.23 14.297-56.062-9.6094-123.47-69.234-194.86-28.781-34.547-36.141-64.547-22.312-91.453 51.609-18.234 105.47-27.609 160.45-27.609 244.69 0 447 184.69 475.08 421.92-32.391-8.625-54.141-29.062-66-62.391-23.062-64.078-87.703-93.469-182.53-82.688-22.453 2.5312-41.625 16.078-51.609 36.234-9.7031 19.922-8.7656 43.078 2.7656 62.156 0 0.14063 0.14062 0.375 0.23438 0.46875 0.14062 0.23438 0.23438 0.46875 0.46875 0.84375 4.0781 6.4688 6.1406 13.547 6.1406 21.141 0 8.7656-3.1406 17.625-9 24.938-3.7031-0.14063-7.4531-0.23438-11.297-0.23438-133.78 0-242.53 108.7-242.53 242.53 0 41.391 12.375 90.703 36.703 147.84-28.219 5.1562-51.844 5.0625-73.219-0.70312-1.4531-0.70312-2.8594-1.5469-4.3125-2.3906-51.375-28.688-121.31-22.312-207.71 18.375-41.953-39.375-76.875-86.391-102.33-137.76zm429.14 266.63c-109.31 0-214.55-37.312-299.39-105.38 69.938-30.469 125.16-35.062 164.29-13.312 2.3906 1.3125 4.6875 2.625 7.0781 3.8438 0.9375 0.46875 1.9219 0.84375 2.8594 1.0781 28.781 8.1562 60.141 8.1562 97.688 0.23438 16.688 34.781 37.547 72.234 62.531 112.22-11.672 0.84375-23.297 1.3125-35.062 1.3125zm314.29 169.36c-39.844 10.781-93.141 16.781-150 16.781s-110.16-6-150-16.781c-42.844-11.625-51.844-24.234-51.844-26.297 0-6.4688 35.766-32.531 142.22-40.688 5.1562 7.2188 10.453 14.391 15.844 21.844 10.312 14.062 26.297 22.219 43.781 22.219 17.531 0 33.375-8.0625 43.781-22.219 5.3906-7.3125 10.688-14.625 15.844-21.844 106.31 8.1562 142.22 34.219 142.22 40.688 0 1.9219-9 14.531-51.844 26.297z" stroke="black" stroke-width="50"/>
</svg>
