<?xml version="1.0" encoding="UTF-8"?>
<svg width="1200pt" height="1200pt" version="1.1" viewBox="0 0 1200 1200" xmlns="http://www.w3.org/2000/svg">
 <path d="m39.984 785.86h340.87l74.391 32.297 0.046875 0.046875c10.406 4.5469 22.5 2.8125 31.219-4.5l38.203-32.016 36 21.047c5.625 3.2344 9.0938 9.2812 9.1406 15.797v40.5l-52.734-0.046875c-16.594 0-30 13.453-30 30 0 16.594 13.406 30 30 30h52.875v78.75l-118.55 0.046875c-13.781-61.594-69-104.95-132.1-103.73-63.094 1.2656-116.58 46.781-127.92 108.84h-135.98c-16.594 0-30 13.406-30 30 0 16.547 13.406 30 30 30h139.03c16.031 58.406 69.703 98.484 130.26 97.266 60.562-1.2188 112.59-43.406 126.28-102.38h148.97c4.0312 0 8.0625-0.84375 11.766-2.4375l75.234-32.25 60 25.453c9.75 61.594 61.172 108 123.42 111.42 62.203 3.4688 118.45-36.984 134.95-97.078h139.03c16.547 0 30-13.453 30-30 0-16.594-13.453-30-30-30h-135.98c-10.875-59.672-60.891-104.39-121.4-108.47-60.512-4.0781-116.06 33.469-134.86 91.125l-53.578-22.688c-7.5469-3.1875-16.078-3.1875-23.578 0l-45.141 19.359v-63.281h52.828c16.547 0 30-13.453 30-30 0-16.594-13.453-30-30-30h-52.688v-22.266c0-28.031 22.734-50.766 50.812-50.812h479.21c16.547 0 30-13.406 30-30 0-16.547-13.453-30-30-30h-295.26l68.016-122.76v0.046875c22.875-41.391 66.422-67.078 113.67-67.125h97.969c16.547 0 30-13.453 30-30 0-16.594-13.453-30-30-30h-97.969c-33.938 0-67.219 9.0938-96.469 26.297-29.203 17.25-53.297 42-69.75 71.625l-73.266 130-160.31-160.1v0.1c-13.1-19.1-30.1-11.859-42.469-0.1875s-11.859 30.656-0.1875 42.469l137.9 139.4-61.078-0.046876c-29.719 0-58.219 12-78.984 33.281-3.3281-3.0938-6.9375-5.9062-10.734-8.3438l-54.422-31.688h-0.046875c-10.922-6.3281-24.656-5.1562-24.359 2.9531l-39.984 33.703-55.031-24-87.516-157.74c-16.453-29.672-40.547-54.422-69.75-71.672-29.25-17.25-62.531-26.344-96.469-26.344h-97.969c-16.547 0-30 13.406-30 30 0 16.547 13.453 30 30 30h97.969c47.297 0 90.797 25.688 113.72 67.031l68.016 122.76h-295.26c-16.547 0-30 13.406-30 30 0 16.547 13.453 30 30 30zm837.98 168h0.046875c29.484 0 56.109 17.812 67.406 45.094 11.297 27.234 5.0625 58.641-15.797 79.547-20.859 20.859-52.266 27.141-79.547 15.844s-45.047-37.922-45.094-67.406c0.14062-40.266 32.766-72.844 73.031-72.891zm-556.03 146.16c-29.484 0-56.109-17.812-67.406-45.094s-5.0625-58.688 15.844-79.547c20.859-20.859 52.266-27.141 79.547-15.797 27.281 11.297 45.047 37.922 45.047 67.453-0.046875 40.312-32.719 72.938-73.031 72.984z" stroke="black" stroke-width="20"/>
 <path d="m317.06 406.4 128.34 82.406h0.046875c13.922 8.9531 32.484 4.875 41.438-9.0938 8.9531-13.922 4.9219-32.484-9.0469-41.438l-112.64-72.328 70.547-30.891c14.766-6.375 21.844-23.297 16.031-38.297l-38.156-98.625 104.2 56.016-0.046875-0.046875c7.3125 3.8906 15.938 4.5469 23.766 1.875s14.203-8.4375 17.625-15.984l56.016-121.31 55.219 195.61h-0.046875c2.3438 8.4844 8.3438 15.469 16.359 19.172 8.0156 3.6562 17.25 3.6094 25.219-0.14062l124.78-58.359-86.484 206.34c-6.4219 15.281 0.75 32.859 15.984 39.281 3.7031 1.5469 7.6406 2.2969 11.625 2.3438 12.094 0 23.016-7.2656 27.656-18.422l96.516-230.29h0.046876c8.0156-19.031 3.4688-41.062-11.484-55.406-14.906-14.297-37.078-17.953-55.828-9.1875l-116.39 54.375-52.969-187.64c-5.5312-20.25-23.25-34.828-44.203-36.375-20.859-1.5469-40.5 9.9844-49.359 28.969l-53.812 117.05-99.984-53.578h-0.046876c-18.422-9.7031-40.922-6.9844-56.484 6.8438s-20.953 35.859-13.5 55.312l37.547 97.078-61.547 26.859c-16.969 7.3594-28.453 23.484-29.906 41.906-1.4531 18.422 7.3594 36.141 22.969 46.078z" stroke="black" stroke-width="20"/>
</svg>
