<?xml version="1.0" encoding="UTF-8"?>
<svg width="1200pt" height="1200pt" version="1.1" viewBox="0 0 1200 1200" xmlns="http://www.w3.org/2000/svg">
 <path d="m1050 525h-225v-187.5c-0.019531-19.887-7.9297-38.949-21.988-53.012-14.062-14.059-33.125-21.969-53.012-21.988h-300c-19.887 0.019531-38.949 7.9297-53.012 21.988-14.059 14.062-21.969 33.125-21.988 53.012v75h-225c-19.887 0.019531-38.949 7.9297-53.012 21.988-14.059 14.062-21.969 33.125-21.988 53.012v412.5c-0.003906 9.9453 3.9492 19.484 10.98 26.52 7.0352 7.0312 16.574 10.984 26.52 10.98h975c9.9453 0.003906 19.484-3.9492 26.52-10.98 7.0312-7.0352 10.984-16.574 10.98-26.52v-300c-0.023438-19.883-7.9336-38.949-21.992-53.008-14.059-14.059-33.125-21.969-53.008-21.992zm-900-37.5h225v375h-225zm300-37.5v-112.5h300v525h-300zm600 412.5h-225v-262.5h225z"/>
</svg>
