<?xml version="1.0" encoding="UTF-8"?>
<svg width="1200pt" height="1200pt" version="1.1" viewBox="0 0 1200 1200" xmlns="http://www.w3.org/2000/svg">
 <path d="m595 490c-100 0-180-80-180-180s80-180 180-180 180 80 180 180-80 180-180 180zm0-312.5c-72.5 0-130 57.5-130 130s57.5 130 130 130 130-57.5 130-130-57.5-130-130-130z" stroke="black" stroke-width="20"/>
 <path d="m240 560c-70 0-127.5-57.5-127.5-127.5s57.5-127.5 127.5-127.5 127.5 57.5 127.5 127.5-57.5 127.5-127.5 127.5zm0-205c-42.5 0-77.5 35-77.5 77.5s35 77.5 77.5 77.5 77.5-35 77.5-77.5-35-77.5-77.5-77.5z" stroke="black" stroke-width="20"/>
 <path d="m960 560c-70 0-127.5-57.5-127.5-127.5s57.5-127.5 127.5-127.5 127.5 57.5 127.5 127.5-55 127.5-127.5 127.5zm0-205c-42.5 0-77.5 35-77.5 77.5s35 77.5 77.5 77.5 77.5-35 77.5-77.5-32.5-77.5-77.5-77.5z" stroke="black" stroke-width="20"/>
 <path d="m902.5 1072.5h-612.5c-15 0-25-10-25-25v-310c0-117.5 95-212.5 212.5-212.5h237.5c117.5 0 212.5 95 212.5 212.5v307.5c0 15-12.5 27.5-25 27.5zm-587.5-50h560v-285c0-90-72.5-162.5-162.5-162.5h-237.5c-90 0-162.5 72.5-162.5 162.5v285z" stroke="black" stroke-width="20"/>
 <path d="m1162.5 967.5h-260c-15 0-25-10-25-25v-202.5c0-37.5-12.5-75-37.5-105-5-7.5-7.5-15-5-25 2.5-7.5 10-15 17.5-17.5 10-2.5 20-2.5 30-2.5h155c82.5 0 147.5 67.5 147.5 147.5v202.5c2.5 15-7.5 27.5-22.5 27.5zm-235-50h210v-177.5c0-55-45-97.5-97.5-97.5h-137.5c15 30 25 65 25 97.5z" stroke="black" stroke-width="20"/>
 <path d="m290 967.5h-252.5c-15 0-25-10-25-25v-202.5c0-82.5 67.5-147.5 147.5-147.5h155c7.5 0 15 0 22.5 2.5 10 2.5 17.5 7.5 20 15s2.5 17.5-5 25c-25 30-40 67.5-40 105v202.5c2.5 12.5-7.5 25-22.5 25zm-227.5-50h202.5v-177.5c0-35 7.5-67.5 25-97.5h-130c-55 0-97.5 45-97.5 97.5z" stroke="black" stroke-width="20"/>
</svg>
