<?xml version="1.0" encoding="utf-8" standalone="no"?>
<!DOCTYPE svg PUBLIC "-//W3C//DTD SVG 1.1//EN"
  "http://www.w3.org/Graphics/SVG/1.1/DTD/svg11.dtd">
<svg xmlns:xlink="http://www.w3.org/1999/xlink" width="820.217187pt" height="392.514375pt" viewBox="0 0 820.217187 392.514375" xmlns="http://www.w3.org/2000/svg" version="1.1">
 <metadata>
  <rdf:RDF xmlns:dc="http://purl.org/dc/elements/1.1/" xmlns:cc="http://creativecommons.org/ns#" xmlns:rdf="http://www.w3.org/1999/02/22-rdf-syntax-ns#">
   <cc:Work>
    <dc:type rdf:resource="http://purl.org/dc/dcmitype/StillImage"/>
    <dc:date>2025-02-12T22:28:55.017381</dc:date>
    <dc:format>image/svg+xml</dc:format>
    <dc:creator>
     <cc:Agent>
      <dc:title>Matplotlib v3.10.0, https://matplotlib.org/</dc:title>
     </cc:Agent>
    </dc:creator>
   </cc:Work>
  </rdf:RDF>
 </metadata>
 <defs>
  <style type="text/css">*{stroke-linejoin: round; stroke-linecap: butt}</style>
 </defs>
 <g id="figure_1">
  <g id="patch_1">
   <path d="M 0 392.514375 
L 820.217188 392.514375 
L 820.217188 0 
L 0 0 
z
" style="fill: #f8f9fa"/>
  </g>
  <g id="axes_1">
   <g id="patch_2">
    <path d="M 40.603125 354.958125 
L 710.203125 354.958125 
L 710.203125 22.318125 
L 40.603125 22.318125 
z
" style="fill: #f8f9fa"/>
   </g>
   <g id="matplotlib.axis_1">
    <g id="xtick_1">
     <g id="line2d_1">
      <path d="M 71.039489 354.958125 
L 71.039489 22.318125 
" clip-path="url(#p32a18b3a55)" style="fill: none; stroke: #b0b0b0; stroke-opacity: 0.1; stroke-width: 0.8; stroke-linecap: square"/>
     </g>
     <g id="line2d_2">
      <defs>
       <path id="m6544994a42" d="M 0 0 
L 0 3.5 
" style="stroke: #000000; stroke-width: 0.8"/>
      </defs>
      <g>
       <use xlink:href="#m6544994a42" x="71.039489" y="354.958125" style="stroke: #000000; stroke-width: 0.8"/>
      </g>
     </g>
     <g id="text_1">
      <!-- 1 -->
      <g transform="translate(67.858239 369.556562) scale(0.1 -0.1)">
       <defs>
        <path id="DejaVuSans-31" d="M 794 531 
L 1825 531 
L 1825 4091 
L 703 3866 
L 703 4441 
L 1819 4666 
L 2450 4666 
L 2450 531 
L 3481 531 
L 3481 0 
L 794 0 
L 794 531 
z
" transform="scale(0.015625)"/>
       </defs>
       <use xlink:href="#DejaVuSans-31"/>
      </g>
     </g>
    </g>
    <g id="xtick_2">
     <g id="line2d_3">
      <path d="M 109.084943 354.958125 
L 109.084943 22.318125 
" clip-path="url(#p32a18b3a55)" style="fill: none; stroke: #b0b0b0; stroke-opacity: 0.1; stroke-width: 0.8; stroke-linecap: square"/>
     </g>
     <g id="line2d_4">
      <g>
       <use xlink:href="#m6544994a42" x="109.084943" y="354.958125" style="stroke: #000000; stroke-width: 0.8"/>
      </g>
     </g>
     <g id="text_2">
      <!-- 2 -->
      <g transform="translate(105.903693 369.556562) scale(0.1 -0.1)">
       <defs>
        <path id="DejaVuSans-32" d="M 1228 531 
L 3431 531 
L 3431 0 
L 469 0 
L 469 531 
Q 828 903 1448 1529 
Q 2069 2156 2228 2338 
Q 2531 2678 2651 2914 
Q 2772 3150 2772 3378 
Q 2772 3750 2511 3984 
Q 2250 4219 1831 4219 
Q 1534 4219 1204 4116 
Q 875 4013 500 3803 
L 500 4441 
Q 881 4594 1212 4672 
Q 1544 4750 1819 4750 
Q 2544 4750 2975 4387 
Q 3406 4025 3406 3419 
Q 3406 3131 3298 2873 
Q 3191 2616 2906 2266 
Q 2828 2175 2409 1742 
Q 1991 1309 1228 531 
z
" transform="scale(0.015625)"/>
       </defs>
       <use xlink:href="#DejaVuSans-32"/>
      </g>
     </g>
    </g>
    <g id="xtick_3">
     <g id="line2d_5">
      <path d="M 147.130398 354.958125 
L 147.130398 22.318125 
" clip-path="url(#p32a18b3a55)" style="fill: none; stroke: #b0b0b0; stroke-opacity: 0.1; stroke-width: 0.8; stroke-linecap: square"/>
     </g>
     <g id="line2d_6">
      <g>
       <use xlink:href="#m6544994a42" x="147.130398" y="354.958125" style="stroke: #000000; stroke-width: 0.8"/>
      </g>
     </g>
     <g id="text_3">
      <!-- 3 -->
      <g transform="translate(143.949148 369.556562) scale(0.1 -0.1)">
       <defs>
        <path id="DejaVuSans-33" d="M 2597 2516 
Q 3050 2419 3304 2112 
Q 3559 1806 3559 1356 
Q 3559 666 3084 287 
Q 2609 -91 1734 -91 
Q 1441 -91 1130 -33 
Q 819 25 488 141 
L 488 750 
Q 750 597 1062 519 
Q 1375 441 1716 441 
Q 2309 441 2620 675 
Q 2931 909 2931 1356 
Q 2931 1769 2642 2001 
Q 2353 2234 1838 2234 
L 1294 2234 
L 1294 2753 
L 1863 2753 
Q 2328 2753 2575 2939 
Q 2822 3125 2822 3475 
Q 2822 3834 2567 4026 
Q 2313 4219 1838 4219 
Q 1578 4219 1281 4162 
Q 984 4106 628 3988 
L 628 4550 
Q 988 4650 1302 4700 
Q 1616 4750 1894 4750 
Q 2613 4750 3031 4423 
Q 3450 4097 3450 3541 
Q 3450 3153 3228 2886 
Q 3006 2619 2597 2516 
z
" transform="scale(0.015625)"/>
       </defs>
       <use xlink:href="#DejaVuSans-33"/>
      </g>
     </g>
    </g>
    <g id="xtick_4">
     <g id="line2d_7">
      <path d="M 185.175852 354.958125 
L 185.175852 22.318125 
" clip-path="url(#p32a18b3a55)" style="fill: none; stroke: #b0b0b0; stroke-opacity: 0.1; stroke-width: 0.8; stroke-linecap: square"/>
     </g>
     <g id="line2d_8">
      <g>
       <use xlink:href="#m6544994a42" x="185.175852" y="354.958125" style="stroke: #000000; stroke-width: 0.8"/>
      </g>
     </g>
     <g id="text_4">
      <!-- 4 -->
      <g transform="translate(181.994602 369.556562) scale(0.1 -0.1)">
       <defs>
        <path id="DejaVuSans-34" d="M 2419 4116 
L 825 1625 
L 2419 1625 
L 2419 4116 
z
M 2253 4666 
L 3047 4666 
L 3047 1625 
L 3713 1625 
L 3713 1100 
L 3047 1100 
L 3047 0 
L 2419 0 
L 2419 1100 
L 313 1100 
L 313 1709 
L 2253 4666 
z
" transform="scale(0.015625)"/>
       </defs>
       <use xlink:href="#DejaVuSans-34"/>
      </g>
     </g>
    </g>
    <g id="xtick_5">
     <g id="line2d_9">
      <path d="M 223.221307 354.958125 
L 223.221307 22.318125 
" clip-path="url(#p32a18b3a55)" style="fill: none; stroke: #b0b0b0; stroke-opacity: 0.1; stroke-width: 0.8; stroke-linecap: square"/>
     </g>
     <g id="line2d_10">
      <g>
       <use xlink:href="#m6544994a42" x="223.221307" y="354.958125" style="stroke: #000000; stroke-width: 0.8"/>
      </g>
     </g>
     <g id="text_5">
      <!-- 5 -->
      <g transform="translate(220.040057 369.556562) scale(0.1 -0.1)">
       <defs>
        <path id="DejaVuSans-35" d="M 691 4666 
L 3169 4666 
L 3169 4134 
L 1269 4134 
L 1269 2991 
Q 1406 3038 1543 3061 
Q 1681 3084 1819 3084 
Q 2600 3084 3056 2656 
Q 3513 2228 3513 1497 
Q 3513 744 3044 326 
Q 2575 -91 1722 -91 
Q 1428 -91 1123 -41 
Q 819 9 494 109 
L 494 744 
Q 775 591 1075 516 
Q 1375 441 1709 441 
Q 2250 441 2565 725 
Q 2881 1009 2881 1497 
Q 2881 1984 2565 2268 
Q 2250 2553 1709 2553 
Q 1456 2553 1204 2497 
Q 953 2441 691 2322 
L 691 4666 
z
" transform="scale(0.015625)"/>
       </defs>
       <use xlink:href="#DejaVuSans-35"/>
      </g>
     </g>
    </g>
    <g id="xtick_6">
     <g id="line2d_11">
      <path d="M 261.266761 354.958125 
L 261.266761 22.318125 
" clip-path="url(#p32a18b3a55)" style="fill: none; stroke: #b0b0b0; stroke-opacity: 0.1; stroke-width: 0.8; stroke-linecap: square"/>
     </g>
     <g id="line2d_12">
      <g>
       <use xlink:href="#m6544994a42" x="261.266761" y="354.958125" style="stroke: #000000; stroke-width: 0.8"/>
      </g>
     </g>
     <g id="text_6">
      <!-- 6 -->
      <g transform="translate(258.085511 369.556562) scale(0.1 -0.1)">
       <defs>
        <path id="DejaVuSans-36" d="M 2113 2584 
Q 1688 2584 1439 2293 
Q 1191 2003 1191 1497 
Q 1191 994 1439 701 
Q 1688 409 2113 409 
Q 2538 409 2786 701 
Q 3034 994 3034 1497 
Q 3034 2003 2786 2293 
Q 2538 2584 2113 2584 
z
M 3366 4563 
L 3366 3988 
Q 3128 4100 2886 4159 
Q 2644 4219 2406 4219 
Q 1781 4219 1451 3797 
Q 1122 3375 1075 2522 
Q 1259 2794 1537 2939 
Q 1816 3084 2150 3084 
Q 2853 3084 3261 2657 
Q 3669 2231 3669 1497 
Q 3669 778 3244 343 
Q 2819 -91 2113 -91 
Q 1303 -91 875 529 
Q 447 1150 447 2328 
Q 447 3434 972 4092 
Q 1497 4750 2381 4750 
Q 2619 4750 2861 4703 
Q 3103 4656 3366 4563 
z
" transform="scale(0.015625)"/>
       </defs>
       <use xlink:href="#DejaVuSans-36"/>
      </g>
     </g>
    </g>
    <g id="xtick_7">
     <g id="line2d_13">
      <path d="M 299.312216 354.958125 
L 299.312216 22.318125 
" clip-path="url(#p32a18b3a55)" style="fill: none; stroke: #b0b0b0; stroke-opacity: 0.1; stroke-width: 0.8; stroke-linecap: square"/>
     </g>
     <g id="line2d_14">
      <g>
       <use xlink:href="#m6544994a42" x="299.312216" y="354.958125" style="stroke: #000000; stroke-width: 0.8"/>
      </g>
     </g>
     <g id="text_7">
      <!-- 7 -->
      <g transform="translate(296.130966 369.556562) scale(0.1 -0.1)">
       <defs>
        <path id="DejaVuSans-37" d="M 525 4666 
L 3525 4666 
L 3525 4397 
L 1831 0 
L 1172 0 
L 2766 4134 
L 525 4134 
L 525 4666 
z
" transform="scale(0.015625)"/>
       </defs>
       <use xlink:href="#DejaVuSans-37"/>
      </g>
     </g>
    </g>
    <g id="xtick_8">
     <g id="line2d_15">
      <path d="M 337.35767 354.958125 
L 337.35767 22.318125 
" clip-path="url(#p32a18b3a55)" style="fill: none; stroke: #b0b0b0; stroke-opacity: 0.1; stroke-width: 0.8; stroke-linecap: square"/>
     </g>
     <g id="line2d_16">
      <g>
       <use xlink:href="#m6544994a42" x="337.35767" y="354.958125" style="stroke: #000000; stroke-width: 0.8"/>
      </g>
     </g>
     <g id="text_8">
      <!-- 8 -->
      <g transform="translate(334.17642 369.556562) scale(0.1 -0.1)">
       <defs>
        <path id="DejaVuSans-38" d="M 2034 2216 
Q 1584 2216 1326 1975 
Q 1069 1734 1069 1313 
Q 1069 891 1326 650 
Q 1584 409 2034 409 
Q 2484 409 2743 651 
Q 3003 894 3003 1313 
Q 3003 1734 2745 1975 
Q 2488 2216 2034 2216 
z
M 1403 2484 
Q 997 2584 770 2862 
Q 544 3141 544 3541 
Q 544 4100 942 4425 
Q 1341 4750 2034 4750 
Q 2731 4750 3128 4425 
Q 3525 4100 3525 3541 
Q 3525 3141 3298 2862 
Q 3072 2584 2669 2484 
Q 3125 2378 3379 2068 
Q 3634 1759 3634 1313 
Q 3634 634 3220 271 
Q 2806 -91 2034 -91 
Q 1263 -91 848 271 
Q 434 634 434 1313 
Q 434 1759 690 2068 
Q 947 2378 1403 2484 
z
M 1172 3481 
Q 1172 3119 1398 2916 
Q 1625 2713 2034 2713 
Q 2441 2713 2670 2916 
Q 2900 3119 2900 3481 
Q 2900 3844 2670 4047 
Q 2441 4250 2034 4250 
Q 1625 4250 1398 4047 
Q 1172 3844 1172 3481 
z
" transform="scale(0.015625)"/>
       </defs>
       <use xlink:href="#DejaVuSans-38"/>
      </g>
     </g>
    </g>
    <g id="xtick_9">
     <g id="line2d_17">
      <path d="M 375.403125 354.958125 
L 375.403125 22.318125 
" clip-path="url(#p32a18b3a55)" style="fill: none; stroke: #b0b0b0; stroke-opacity: 0.1; stroke-width: 0.8; stroke-linecap: square"/>
     </g>
     <g id="line2d_18">
      <g>
       <use xlink:href="#m6544994a42" x="375.403125" y="354.958125" style="stroke: #000000; stroke-width: 0.8"/>
      </g>
     </g>
     <g id="text_9">
      <!-- 9 -->
      <g transform="translate(372.221875 369.556562) scale(0.1 -0.1)">
       <defs>
        <path id="DejaVuSans-39" d="M 703 97 
L 703 672 
Q 941 559 1184 500 
Q 1428 441 1663 441 
Q 2288 441 2617 861 
Q 2947 1281 2994 2138 
Q 2813 1869 2534 1725 
Q 2256 1581 1919 1581 
Q 1219 1581 811 2004 
Q 403 2428 403 3163 
Q 403 3881 828 4315 
Q 1253 4750 1959 4750 
Q 2769 4750 3195 4129 
Q 3622 3509 3622 2328 
Q 3622 1225 3098 567 
Q 2575 -91 1691 -91 
Q 1453 -91 1209 -44 
Q 966 3 703 97 
z
M 1959 2075 
Q 2384 2075 2632 2365 
Q 2881 2656 2881 3163 
Q 2881 3666 2632 3958 
Q 2384 4250 1959 4250 
Q 1534 4250 1286 3958 
Q 1038 3666 1038 3163 
Q 1038 2656 1286 2365 
Q 1534 2075 1959 2075 
z
" transform="scale(0.015625)"/>
       </defs>
       <use xlink:href="#DejaVuSans-39"/>
      </g>
     </g>
    </g>
    <g id="xtick_10">
     <g id="line2d_19">
      <path d="M 413.44858 354.958125 
L 413.44858 22.318125 
" clip-path="url(#p32a18b3a55)" style="fill: none; stroke: #b0b0b0; stroke-opacity: 0.1; stroke-width: 0.8; stroke-linecap: square"/>
     </g>
     <g id="line2d_20">
      <g>
       <use xlink:href="#m6544994a42" x="413.44858" y="354.958125" style="stroke: #000000; stroke-width: 0.8"/>
      </g>
     </g>
     <g id="text_10">
      <!-- 10 -->
      <g transform="translate(407.08608 369.556562) scale(0.1 -0.1)">
       <defs>
        <path id="DejaVuSans-30" d="M 2034 4250 
Q 1547 4250 1301 3770 
Q 1056 3291 1056 2328 
Q 1056 1369 1301 889 
Q 1547 409 2034 409 
Q 2525 409 2770 889 
Q 3016 1369 3016 2328 
Q 3016 3291 2770 3770 
Q 2525 4250 2034 4250 
z
M 2034 4750 
Q 2819 4750 3233 4129 
Q 3647 3509 3647 2328 
Q 3647 1150 3233 529 
Q 2819 -91 2034 -91 
Q 1250 -91 836 529 
Q 422 1150 422 2328 
Q 422 3509 836 4129 
Q 1250 4750 2034 4750 
z
" transform="scale(0.015625)"/>
       </defs>
       <use xlink:href="#DejaVuSans-31"/>
       <use xlink:href="#DejaVuSans-30" transform="translate(63.623047 0)"/>
      </g>
     </g>
    </g>
    <g id="xtick_11">
     <g id="line2d_21">
      <path d="M 451.494034 354.958125 
L 451.494034 22.318125 
" clip-path="url(#p32a18b3a55)" style="fill: none; stroke: #b0b0b0; stroke-opacity: 0.1; stroke-width: 0.8; stroke-linecap: square"/>
     </g>
     <g id="line2d_22">
      <g>
       <use xlink:href="#m6544994a42" x="451.494034" y="354.958125" style="stroke: #000000; stroke-width: 0.8"/>
      </g>
     </g>
     <g id="text_11">
      <!-- 11 -->
      <g transform="translate(445.131534 369.556562) scale(0.1 -0.1)">
       <use xlink:href="#DejaVuSans-31"/>
       <use xlink:href="#DejaVuSans-31" transform="translate(63.623047 0)"/>
      </g>
     </g>
    </g>
    <g id="xtick_12">
     <g id="line2d_23">
      <path d="M 489.539489 354.958125 
L 489.539489 22.318125 
" clip-path="url(#p32a18b3a55)" style="fill: none; stroke: #b0b0b0; stroke-opacity: 0.1; stroke-width: 0.8; stroke-linecap: square"/>
     </g>
     <g id="line2d_24">
      <g>
       <use xlink:href="#m6544994a42" x="489.539489" y="354.958125" style="stroke: #000000; stroke-width: 0.8"/>
      </g>
     </g>
     <g id="text_12">
      <!-- 12 -->
      <g transform="translate(483.176989 369.556562) scale(0.1 -0.1)">
       <use xlink:href="#DejaVuSans-31"/>
       <use xlink:href="#DejaVuSans-32" transform="translate(63.623047 0)"/>
      </g>
     </g>
    </g>
    <g id="xtick_13">
     <g id="line2d_25">
      <path d="M 527.584943 354.958125 
L 527.584943 22.318125 
" clip-path="url(#p32a18b3a55)" style="fill: none; stroke: #b0b0b0; stroke-opacity: 0.1; stroke-width: 0.8; stroke-linecap: square"/>
     </g>
     <g id="line2d_26">
      <g>
       <use xlink:href="#m6544994a42" x="527.584943" y="354.958125" style="stroke: #000000; stroke-width: 0.8"/>
      </g>
     </g>
     <g id="text_13">
      <!-- 13 -->
      <g transform="translate(521.222443 369.556562) scale(0.1 -0.1)">
       <use xlink:href="#DejaVuSans-31"/>
       <use xlink:href="#DejaVuSans-33" transform="translate(63.623047 0)"/>
      </g>
     </g>
    </g>
    <g id="xtick_14">
     <g id="line2d_27">
      <path d="M 565.630398 354.958125 
L 565.630398 22.318125 
" clip-path="url(#p32a18b3a55)" style="fill: none; stroke: #b0b0b0; stroke-opacity: 0.1; stroke-width: 0.8; stroke-linecap: square"/>
     </g>
     <g id="line2d_28">
      <g>
       <use xlink:href="#m6544994a42" x="565.630398" y="354.958125" style="stroke: #000000; stroke-width: 0.8"/>
      </g>
     </g>
     <g id="text_14">
      <!-- 14 -->
      <g transform="translate(559.267898 369.556562) scale(0.1 -0.1)">
       <use xlink:href="#DejaVuSans-31"/>
       <use xlink:href="#DejaVuSans-34" transform="translate(63.623047 0)"/>
      </g>
     </g>
    </g>
    <g id="xtick_15">
     <g id="line2d_29">
      <path d="M 603.675852 354.958125 
L 603.675852 22.318125 
" clip-path="url(#p32a18b3a55)" style="fill: none; stroke: #b0b0b0; stroke-opacity: 0.1; stroke-width: 0.8; stroke-linecap: square"/>
     </g>
     <g id="line2d_30">
      <g>
       <use xlink:href="#m6544994a42" x="603.675852" y="354.958125" style="stroke: #000000; stroke-width: 0.8"/>
      </g>
     </g>
     <g id="text_15">
      <!-- 15 -->
      <g transform="translate(597.313352 369.556562) scale(0.1 -0.1)">
       <use xlink:href="#DejaVuSans-31"/>
       <use xlink:href="#DejaVuSans-35" transform="translate(63.623047 0)"/>
      </g>
     </g>
    </g>
    <g id="xtick_16">
     <g id="line2d_31">
      <path d="M 641.721307 354.958125 
L 641.721307 22.318125 
" clip-path="url(#p32a18b3a55)" style="fill: none; stroke: #b0b0b0; stroke-opacity: 0.1; stroke-width: 0.8; stroke-linecap: square"/>
     </g>
     <g id="line2d_32">
      <g>
       <use xlink:href="#m6544994a42" x="641.721307" y="354.958125" style="stroke: #000000; stroke-width: 0.8"/>
      </g>
     </g>
     <g id="text_16">
      <!-- 16 -->
      <g transform="translate(635.358807 369.556562) scale(0.1 -0.1)">
       <use xlink:href="#DejaVuSans-31"/>
       <use xlink:href="#DejaVuSans-36" transform="translate(63.623047 0)"/>
      </g>
     </g>
    </g>
    <g id="xtick_17">
     <g id="line2d_33">
      <path d="M 679.766761 354.958125 
L 679.766761 22.318125 
" clip-path="url(#p32a18b3a55)" style="fill: none; stroke: #b0b0b0; stroke-opacity: 0.1; stroke-width: 0.8; stroke-linecap: square"/>
     </g>
     <g id="line2d_34">
      <g>
       <use xlink:href="#m6544994a42" x="679.766761" y="354.958125" style="stroke: #000000; stroke-width: 0.8"/>
      </g>
     </g>
     <g id="text_17">
      <!-- 17 -->
      <g transform="translate(673.404261 369.556562) scale(0.1 -0.1)">
       <use xlink:href="#DejaVuSans-31"/>
       <use xlink:href="#DejaVuSans-37" transform="translate(63.623047 0)"/>
      </g>
     </g>
    </g>
    <g id="text_18">
     <!-- Runde -->
     <g transform="translate(359.565625 383.234687) scale(0.1 -0.1)">
      <defs>
       <path id="DejaVuSans-52" d="M 2841 2188 
Q 3044 2119 3236 1894 
Q 3428 1669 3622 1275 
L 4263 0 
L 3584 0 
L 2988 1197 
Q 2756 1666 2539 1819 
Q 2322 1972 1947 1972 
L 1259 1972 
L 1259 0 
L 628 0 
L 628 4666 
L 2053 4666 
Q 2853 4666 3247 4331 
Q 3641 3997 3641 3322 
Q 3641 2881 3436 2590 
Q 3231 2300 2841 2188 
z
M 1259 4147 
L 1259 2491 
L 2053 2491 
Q 2509 2491 2742 2702 
Q 2975 2913 2975 3322 
Q 2975 3731 2742 3939 
Q 2509 4147 2053 4147 
L 1259 4147 
z
" transform="scale(0.015625)"/>
       <path id="DejaVuSans-75" d="M 544 1381 
L 544 3500 
L 1119 3500 
L 1119 1403 
Q 1119 906 1312 657 
Q 1506 409 1894 409 
Q 2359 409 2629 706 
Q 2900 1003 2900 1516 
L 2900 3500 
L 3475 3500 
L 3475 0 
L 2900 0 
L 2900 538 
Q 2691 219 2414 64 
Q 2138 -91 1772 -91 
Q 1169 -91 856 284 
Q 544 659 544 1381 
z
M 1991 3584 
L 1991 3584 
z
" transform="scale(0.015625)"/>
       <path id="DejaVuSans-6e" d="M 3513 2113 
L 3513 0 
L 2938 0 
L 2938 2094 
Q 2938 2591 2744 2837 
Q 2550 3084 2163 3084 
Q 1697 3084 1428 2787 
Q 1159 2491 1159 1978 
L 1159 0 
L 581 0 
L 581 3500 
L 1159 3500 
L 1159 2956 
Q 1366 3272 1645 3428 
Q 1925 3584 2291 3584 
Q 2894 3584 3203 3211 
Q 3513 2838 3513 2113 
z
" transform="scale(0.015625)"/>
       <path id="DejaVuSans-64" d="M 2906 2969 
L 2906 4863 
L 3481 4863 
L 3481 0 
L 2906 0 
L 2906 525 
Q 2725 213 2448 61 
Q 2172 -91 1784 -91 
Q 1150 -91 751 415 
Q 353 922 353 1747 
Q 353 2572 751 3078 
Q 1150 3584 1784 3584 
Q 2172 3584 2448 3432 
Q 2725 3281 2906 2969 
z
M 947 1747 
Q 947 1113 1208 752 
Q 1469 391 1925 391 
Q 2381 391 2643 752 
Q 2906 1113 2906 1747 
Q 2906 2381 2643 2742 
Q 2381 3103 1925 3103 
Q 1469 3103 1208 2742 
Q 947 2381 947 1747 
z
" transform="scale(0.015625)"/>
       <path id="DejaVuSans-65" d="M 3597 1894 
L 3597 1613 
L 953 1613 
Q 991 1019 1311 708 
Q 1631 397 2203 397 
Q 2534 397 2845 478 
Q 3156 559 3463 722 
L 3463 178 
Q 3153 47 2828 -22 
Q 2503 -91 2169 -91 
Q 1331 -91 842 396 
Q 353 884 353 1716 
Q 353 2575 817 3079 
Q 1281 3584 2069 3584 
Q 2775 3584 3186 3129 
Q 3597 2675 3597 1894 
z
M 3022 2063 
Q 3016 2534 2758 2815 
Q 2500 3097 2075 3097 
Q 1594 3097 1305 2825 
Q 1016 2553 972 2059 
L 3022 2063 
z
" transform="scale(0.015625)"/>
      </defs>
      <use xlink:href="#DejaVuSans-52"/>
      <use xlink:href="#DejaVuSans-75" transform="translate(64.982422 0)"/>
      <use xlink:href="#DejaVuSans-6e" transform="translate(128.361328 0)"/>
      <use xlink:href="#DejaVuSans-64" transform="translate(191.740234 0)"/>
      <use xlink:href="#DejaVuSans-65" transform="translate(255.216797 0)"/>
     </g>
    </g>
   </g>
   <g id="matplotlib.axis_2">
    <g id="ytick_1">
     <g id="line2d_35">
      <path d="M 40.603125 37.438125 
L 710.203125 37.438125 
" clip-path="url(#p32a18b3a55)" style="fill: none; stroke: #b0b0b0; stroke-opacity: 0.1; stroke-width: 0.8; stroke-linecap: square"/>
     </g>
     <g id="line2d_36">
      <defs>
       <path id="m7b5ae69331" d="M 0 0 
L -3.5 0 
" style="stroke: #000000; stroke-width: 0.8"/>
      </defs>
      <g>
       <use xlink:href="#m7b5ae69331" x="40.603125" y="37.438125" style="stroke: #000000; stroke-width: 0.8"/>
      </g>
     </g>
     <g id="text_19">
      <!-- 1 -->
      <g transform="translate(27.240625 41.237344) scale(0.1 -0.1)">
       <use xlink:href="#DejaVuSans-31"/>
      </g>
     </g>
    </g>
    <g id="ytick_2">
     <g id="line2d_37">
      <path d="M 40.603125 71.038125 
L 710.203125 71.038125 
" clip-path="url(#p32a18b3a55)" style="fill: none; stroke: #b0b0b0; stroke-opacity: 0.1; stroke-width: 0.8; stroke-linecap: square"/>
     </g>
     <g id="line2d_38">
      <g>
       <use xlink:href="#m7b5ae69331" x="40.603125" y="71.038125" style="stroke: #000000; stroke-width: 0.8"/>
      </g>
     </g>
     <g id="text_20">
      <!-- 2 -->
      <g transform="translate(27.240625 74.837344) scale(0.1 -0.1)">
       <use xlink:href="#DejaVuSans-32"/>
      </g>
     </g>
    </g>
    <g id="ytick_3">
     <g id="line2d_39">
      <path d="M 40.603125 104.638125 
L 710.203125 104.638125 
" clip-path="url(#p32a18b3a55)" style="fill: none; stroke: #b0b0b0; stroke-opacity: 0.1; stroke-width: 0.8; stroke-linecap: square"/>
     </g>
     <g id="line2d_40">
      <g>
       <use xlink:href="#m7b5ae69331" x="40.603125" y="104.638125" style="stroke: #000000; stroke-width: 0.8"/>
      </g>
     </g>
     <g id="text_21">
      <!-- 3 -->
      <g transform="translate(27.240625 108.437344) scale(0.1 -0.1)">
       <use xlink:href="#DejaVuSans-33"/>
      </g>
     </g>
    </g>
    <g id="ytick_4">
     <g id="line2d_41">
      <path d="M 40.603125 138.238125 
L 710.203125 138.238125 
" clip-path="url(#p32a18b3a55)" style="fill: none; stroke: #b0b0b0; stroke-opacity: 0.1; stroke-width: 0.8; stroke-linecap: square"/>
     </g>
     <g id="line2d_42">
      <g>
       <use xlink:href="#m7b5ae69331" x="40.603125" y="138.238125" style="stroke: #000000; stroke-width: 0.8"/>
      </g>
     </g>
     <g id="text_22">
      <!-- 4 -->
      <g transform="translate(27.240625 142.037344) scale(0.1 -0.1)">
       <use xlink:href="#DejaVuSans-34"/>
      </g>
     </g>
    </g>
    <g id="ytick_5">
     <g id="line2d_43">
      <path d="M 40.603125 171.838125 
L 710.203125 171.838125 
" clip-path="url(#p32a18b3a55)" style="fill: none; stroke: #b0b0b0; stroke-opacity: 0.1; stroke-width: 0.8; stroke-linecap: square"/>
     </g>
     <g id="line2d_44">
      <g>
       <use xlink:href="#m7b5ae69331" x="40.603125" y="171.838125" style="stroke: #000000; stroke-width: 0.8"/>
      </g>
     </g>
     <g id="text_23">
      <!-- 5 -->
      <g transform="translate(27.240625 175.637344) scale(0.1 -0.1)">
       <use xlink:href="#DejaVuSans-35"/>
      </g>
     </g>
    </g>
    <g id="ytick_6">
     <g id="line2d_45">
      <path d="M 40.603125 205.438125 
L 710.203125 205.438125 
" clip-path="url(#p32a18b3a55)" style="fill: none; stroke: #b0b0b0; stroke-opacity: 0.1; stroke-width: 0.8; stroke-linecap: square"/>
     </g>
     <g id="line2d_46">
      <g>
       <use xlink:href="#m7b5ae69331" x="40.603125" y="205.438125" style="stroke: #000000; stroke-width: 0.8"/>
      </g>
     </g>
     <g id="text_24">
      <!-- 6 -->
      <g transform="translate(27.240625 209.237344) scale(0.1 -0.1)">
       <use xlink:href="#DejaVuSans-36"/>
      </g>
     </g>
    </g>
    <g id="ytick_7">
     <g id="line2d_47">
      <path d="M 40.603125 239.038125 
L 710.203125 239.038125 
" clip-path="url(#p32a18b3a55)" style="fill: none; stroke: #b0b0b0; stroke-opacity: 0.1; stroke-width: 0.8; stroke-linecap: square"/>
     </g>
     <g id="line2d_48">
      <g>
       <use xlink:href="#m7b5ae69331" x="40.603125" y="239.038125" style="stroke: #000000; stroke-width: 0.8"/>
      </g>
     </g>
     <g id="text_25">
      <!-- 7 -->
      <g transform="translate(27.240625 242.837344) scale(0.1 -0.1)">
       <use xlink:href="#DejaVuSans-37"/>
      </g>
     </g>
    </g>
    <g id="ytick_8">
     <g id="line2d_49">
      <path d="M 40.603125 272.638125 
L 710.203125 272.638125 
" clip-path="url(#p32a18b3a55)" style="fill: none; stroke: #b0b0b0; stroke-opacity: 0.1; stroke-width: 0.8; stroke-linecap: square"/>
     </g>
     <g id="line2d_50">
      <g>
       <use xlink:href="#m7b5ae69331" x="40.603125" y="272.638125" style="stroke: #000000; stroke-width: 0.8"/>
      </g>
     </g>
     <g id="text_26">
      <!-- 8 -->
      <g transform="translate(27.240625 276.437344) scale(0.1 -0.1)">
       <use xlink:href="#DejaVuSans-38"/>
      </g>
     </g>
    </g>
    <g id="ytick_9">
     <g id="line2d_51">
      <path d="M 40.603125 306.238125 
L 710.203125 306.238125 
" clip-path="url(#p32a18b3a55)" style="fill: none; stroke: #b0b0b0; stroke-opacity: 0.1; stroke-width: 0.8; stroke-linecap: square"/>
     </g>
     <g id="line2d_52">
      <g>
       <use xlink:href="#m7b5ae69331" x="40.603125" y="306.238125" style="stroke: #000000; stroke-width: 0.8"/>
      </g>
     </g>
     <g id="text_27">
      <!-- 9 -->
      <g transform="translate(27.240625 310.037344) scale(0.1 -0.1)">
       <use xlink:href="#DejaVuSans-39"/>
      </g>
     </g>
    </g>
    <g id="ytick_10">
     <g id="line2d_53">
      <path d="M 40.603125 339.838125 
L 710.203125 339.838125 
" clip-path="url(#p32a18b3a55)" style="fill: none; stroke: #b0b0b0; stroke-opacity: 0.1; stroke-width: 0.8; stroke-linecap: square"/>
     </g>
     <g id="line2d_54">
      <g>
       <use xlink:href="#m7b5ae69331" x="40.603125" y="339.838125" style="stroke: #000000; stroke-width: 0.8"/>
      </g>
     </g>
     <g id="text_28">
      <!-- 10 -->
      <g transform="translate(20.878125 343.637344) scale(0.1 -0.1)">
       <use xlink:href="#DejaVuSans-31"/>
       <use xlink:href="#DejaVuSans-30" transform="translate(63.623047 0)"/>
      </g>
     </g>
    </g>
    <g id="text_29">
     <!-- Meisterschaftsposition -->
     <g transform="translate(14.798438 244.743594) rotate(-90) scale(0.1 -0.1)">
      <defs>
       <path id="DejaVuSans-4d" d="M 628 4666 
L 1569 4666 
L 2759 1491 
L 3956 4666 
L 4897 4666 
L 4897 0 
L 4281 0 
L 4281 4097 
L 3078 897 
L 2444 897 
L 1241 4097 
L 1241 0 
L 628 0 
L 628 4666 
z
" transform="scale(0.015625)"/>
       <path id="DejaVuSans-69" d="M 603 3500 
L 1178 3500 
L 1178 0 
L 603 0 
L 603 3500 
z
M 603 4863 
L 1178 4863 
L 1178 4134 
L 603 4134 
L 603 4863 
z
" transform="scale(0.015625)"/>
       <path id="DejaVuSans-73" d="M 2834 3397 
L 2834 2853 
Q 2591 2978 2328 3040 
Q 2066 3103 1784 3103 
Q 1356 3103 1142 2972 
Q 928 2841 928 2578 
Q 928 2378 1081 2264 
Q 1234 2150 1697 2047 
L 1894 2003 
Q 2506 1872 2764 1633 
Q 3022 1394 3022 966 
Q 3022 478 2636 193 
Q 2250 -91 1575 -91 
Q 1294 -91 989 -36 
Q 684 19 347 128 
L 347 722 
Q 666 556 975 473 
Q 1284 391 1588 391 
Q 1994 391 2212 530 
Q 2431 669 2431 922 
Q 2431 1156 2273 1281 
Q 2116 1406 1581 1522 
L 1381 1569 
Q 847 1681 609 1914 
Q 372 2147 372 2553 
Q 372 3047 722 3315 
Q 1072 3584 1716 3584 
Q 2034 3584 2315 3537 
Q 2597 3491 2834 3397 
z
" transform="scale(0.015625)"/>
       <path id="DejaVuSans-74" d="M 1172 4494 
L 1172 3500 
L 2356 3500 
L 2356 3053 
L 1172 3053 
L 1172 1153 
Q 1172 725 1289 603 
Q 1406 481 1766 481 
L 2356 481 
L 2356 0 
L 1766 0 
Q 1100 0 847 248 
Q 594 497 594 1153 
L 594 3053 
L 172 3053 
L 172 3500 
L 594 3500 
L 594 4494 
L 1172 4494 
z
" transform="scale(0.015625)"/>
       <path id="DejaVuSans-72" d="M 2631 2963 
Q 2534 3019 2420 3045 
Q 2306 3072 2169 3072 
Q 1681 3072 1420 2755 
Q 1159 2438 1159 1844 
L 1159 0 
L 581 0 
L 581 3500 
L 1159 3500 
L 1159 2956 
Q 1341 3275 1631 3429 
Q 1922 3584 2338 3584 
Q 2397 3584 2469 3576 
Q 2541 3569 2628 3553 
L 2631 2963 
z
" transform="scale(0.015625)"/>
       <path id="DejaVuSans-63" d="M 3122 3366 
L 3122 2828 
Q 2878 2963 2633 3030 
Q 2388 3097 2138 3097 
Q 1578 3097 1268 2742 
Q 959 2388 959 1747 
Q 959 1106 1268 751 
Q 1578 397 2138 397 
Q 2388 397 2633 464 
Q 2878 531 3122 666 
L 3122 134 
Q 2881 22 2623 -34 
Q 2366 -91 2075 -91 
Q 1284 -91 818 406 
Q 353 903 353 1747 
Q 353 2603 823 3093 
Q 1294 3584 2113 3584 
Q 2378 3584 2631 3529 
Q 2884 3475 3122 3366 
z
" transform="scale(0.015625)"/>
       <path id="DejaVuSans-68" d="M 3513 2113 
L 3513 0 
L 2938 0 
L 2938 2094 
Q 2938 2591 2744 2837 
Q 2550 3084 2163 3084 
Q 1697 3084 1428 2787 
Q 1159 2491 1159 1978 
L 1159 0 
L 581 0 
L 581 4863 
L 1159 4863 
L 1159 2956 
Q 1366 3272 1645 3428 
Q 1925 3584 2291 3584 
Q 2894 3584 3203 3211 
Q 3513 2838 3513 2113 
z
" transform="scale(0.015625)"/>
       <path id="DejaVuSans-61" d="M 2194 1759 
Q 1497 1759 1228 1600 
Q 959 1441 959 1056 
Q 959 750 1161 570 
Q 1363 391 1709 391 
Q 2188 391 2477 730 
Q 2766 1069 2766 1631 
L 2766 1759 
L 2194 1759 
z
M 3341 1997 
L 3341 0 
L 2766 0 
L 2766 531 
Q 2569 213 2275 61 
Q 1981 -91 1556 -91 
Q 1019 -91 701 211 
Q 384 513 384 1019 
Q 384 1609 779 1909 
Q 1175 2209 1959 2209 
L 2766 2209 
L 2766 2266 
Q 2766 2663 2505 2880 
Q 2244 3097 1772 3097 
Q 1472 3097 1187 3025 
Q 903 2953 641 2809 
L 641 3341 
Q 956 3463 1253 3523 
Q 1550 3584 1831 3584 
Q 2591 3584 2966 3190 
Q 3341 2797 3341 1997 
z
" transform="scale(0.015625)"/>
       <path id="DejaVuSans-66" d="M 2375 4863 
L 2375 4384 
L 1825 4384 
Q 1516 4384 1395 4259 
Q 1275 4134 1275 3809 
L 1275 3500 
L 2222 3500 
L 2222 3053 
L 1275 3053 
L 1275 0 
L 697 0 
L 697 3053 
L 147 3053 
L 147 3500 
L 697 3500 
L 697 3744 
Q 697 4328 969 4595 
Q 1241 4863 1831 4863 
L 2375 4863 
z
" transform="scale(0.015625)"/>
       <path id="DejaVuSans-70" d="M 1159 525 
L 1159 -1331 
L 581 -1331 
L 581 3500 
L 1159 3500 
L 1159 2969 
Q 1341 3281 1617 3432 
Q 1894 3584 2278 3584 
Q 2916 3584 3314 3078 
Q 3713 2572 3713 1747 
Q 3713 922 3314 415 
Q 2916 -91 2278 -91 
Q 1894 -91 1617 61 
Q 1341 213 1159 525 
z
M 3116 1747 
Q 3116 2381 2855 2742 
Q 2594 3103 2138 3103 
Q 1681 3103 1420 2742 
Q 1159 2381 1159 1747 
Q 1159 1113 1420 752 
Q 1681 391 2138 391 
Q 2594 391 2855 752 
Q 3116 1113 3116 1747 
z
" transform="scale(0.015625)"/>
       <path id="DejaVuSans-6f" d="M 1959 3097 
Q 1497 3097 1228 2736 
Q 959 2375 959 1747 
Q 959 1119 1226 758 
Q 1494 397 1959 397 
Q 2419 397 2687 759 
Q 2956 1122 2956 1747 
Q 2956 2369 2687 2733 
Q 2419 3097 1959 3097 
z
M 1959 3584 
Q 2709 3584 3137 3096 
Q 3566 2609 3566 1747 
Q 3566 888 3137 398 
Q 2709 -91 1959 -91 
Q 1206 -91 779 398 
Q 353 888 353 1747 
Q 353 2609 779 3096 
Q 1206 3584 1959 3584 
z
" transform="scale(0.015625)"/>
      </defs>
      <use xlink:href="#DejaVuSans-4d"/>
      <use xlink:href="#DejaVuSans-65" transform="translate(86.279297 0)"/>
      <use xlink:href="#DejaVuSans-69" transform="translate(147.802734 0)"/>
      <use xlink:href="#DejaVuSans-73" transform="translate(175.585938 0)"/>
      <use xlink:href="#DejaVuSans-74" transform="translate(227.685547 0)"/>
      <use xlink:href="#DejaVuSans-65" transform="translate(266.894531 0)"/>
      <use xlink:href="#DejaVuSans-72" transform="translate(328.417969 0)"/>
      <use xlink:href="#DejaVuSans-73" transform="translate(369.53125 0)"/>
      <use xlink:href="#DejaVuSans-63" transform="translate(421.630859 0)"/>
      <use xlink:href="#DejaVuSans-68" transform="translate(476.611328 0)"/>
      <use xlink:href="#DejaVuSans-61" transform="translate(539.990234 0)"/>
      <use xlink:href="#DejaVuSans-66" transform="translate(601.269531 0)"/>
      <use xlink:href="#DejaVuSans-74" transform="translate(634.724609 0)"/>
      <use xlink:href="#DejaVuSans-73" transform="translate(673.933594 0)"/>
      <use xlink:href="#DejaVuSans-70" transform="translate(726.033203 0)"/>
      <use xlink:href="#DejaVuSans-6f" transform="translate(789.509766 0)"/>
      <use xlink:href="#DejaVuSans-73" transform="translate(850.691406 0)"/>
      <use xlink:href="#DejaVuSans-69" transform="translate(902.791016 0)"/>
      <use xlink:href="#DejaVuSans-74" transform="translate(930.574219 0)"/>
      <use xlink:href="#DejaVuSans-69" transform="translate(969.783203 0)"/>
      <use xlink:href="#DejaVuSans-6f" transform="translate(997.566406 0)"/>
      <use xlink:href="#DejaVuSans-6e" transform="translate(1058.748047 0)"/>
     </g>
    </g>
   </g>
   <g id="line2d_55">
    <path d="M 71.039489 37.438125 
L 109.084943 37.438125 
L 147.130398 37.438125 
L 185.175852 37.438125 
L 223.221307 37.438125 
L 261.266761 37.438125 
L 299.312216 37.438125 
L 337.35767 37.438125 
L 375.403125 37.438125 
L 413.44858 37.438125 
L 451.494034 37.438125 
L 489.539489 37.438125 
L 527.584943 37.438125 
L 565.630398 37.438125 
L 603.675852 37.438125 
L 641.721307 37.438125 
L 679.766761 37.438125 
" clip-path="url(#p32a18b3a55)" style="fill: none; stroke: #27f4d2; stroke-width: 2; stroke-linecap: square"/>
   </g>
   <g id="line2d_56">
    <path d="M 71.039489 306.238125 
L 109.084943 104.638125 
L 147.130398 71.038125 
L 185.175852 71.038125 
L 223.221307 71.038125 
L 261.266761 71.038125 
L 299.312216 71.038125 
L 337.35767 71.038125 
L 375.403125 71.038125 
L 413.44858 71.038125 
L 451.494034 71.038125 
L 489.539489 71.038125 
L 527.584943 71.038125 
L 565.630398 71.038125 
L 603.675852 71.038125 
L 641.721307 71.038125 
L 679.766761 71.038125 
" clip-path="url(#p32a18b3a55)" style="fill: none; stroke: #3671c6; stroke-width: 2; stroke-linecap: square"/>
   </g>
   <g id="line2d_57">
    <path d="M 71.039489 71.038125 
L 109.084943 71.038125 
L 147.130398 104.638125 
L 185.175852 104.638125 
L 223.221307 138.238125 
L 261.266761 138.238125 
L 299.312216 104.638125 
L 337.35767 104.638125 
L 375.403125 104.638125 
L 413.44858 104.638125 
L 451.494034 138.238125 
L 489.539489 138.238125 
L 527.584943 138.238125 
L 565.630398 138.238125 
L 603.675852 104.638125 
L 641.721307 138.238125 
L 679.766761 104.638125 
" clip-path="url(#p32a18b3a55)" style="fill: none; stroke: #ff8000; stroke-width: 2; stroke-linecap: square"/>
   </g>
   <g id="line2d_58">
    <path d="M 71.039489 239.038125 
L 109.084943 205.438125 
L 147.130398 171.838125 
L 185.175852 205.438125 
L 223.221307 171.838125 
L 261.266761 104.638125 
L 299.312216 138.238125 
L 337.35767 138.238125 
L 375.403125 138.238125 
L 413.44858 138.238125 
L 451.494034 104.638125 
L 489.539489 104.638125 
L 527.584943 171.838125 
L 565.630398 104.638125 
L 603.675852 138.238125 
L 641.721307 104.638125 
L 679.766761 138.238125 
" clip-path="url(#p32a18b3a55)" style="fill: none; stroke: #f596c8; stroke-width: 2; stroke-linecap: square"/>
   </g>
   <g id="line2d_59">
    <path d="M 71.039489 171.838125 
L 109.084943 171.838125 
L 147.130398 205.438125 
L 185.175852 171.838125 
L 223.221307 205.438125 
L 261.266761 205.438125 
L 299.312216 205.438125 
L 337.35767 171.838125 
L 375.403125 171.838125 
L 413.44858 171.838125 
L 451.494034 171.838125 
L 489.539489 171.838125 
L 527.584943 104.638125 
L 565.630398 171.838125 
L 603.675852 171.838125 
L 641.721307 171.838125 
L 679.766761 171.838125 
" clip-path="url(#p32a18b3a55)" style="fill: none; stroke: #fff500; stroke-width: 2; stroke-linecap: square"/>
   </g>
   <g id="line2d_60">
    <path d="M 71.039489 104.638125 
L 109.084943 138.238125 
L 147.130398 138.238125 
L 185.175852 138.238125 
L 223.221307 104.638125 
L 261.266761 171.838125 
L 299.312216 171.838125 
L 337.35767 205.438125 
L 375.403125 205.438125 
L 413.44858 205.438125 
L 451.494034 205.438125 
L 489.539489 205.438125 
L 527.584943 205.438125 
L 565.630398 205.438125 
L 603.675852 205.438125 
L 641.721307 205.438125 
L 679.766761 205.438125 
" clip-path="url(#p32a18b3a55)" style="fill: none; stroke: #e8002d; stroke-width: 2; stroke-linecap: square"/>
   </g>
   <g id="line2d_61">
    <path d="M 71.039489 138.238125 
L 109.084943 239.038125 
L 147.130398 239.038125 
L 185.175852 239.038125 
L 223.221307 239.038125 
L 261.266761 239.038125 
L 299.312216 239.038125 
L 337.35767 239.038125 
L 375.403125 239.038125 
L 413.44858 239.038125 
L 451.494034 239.038125 
L 489.539489 239.038125 
L 527.584943 239.038125 
L 565.630398 239.038125 
L 603.675852 239.038125 
L 641.721307 239.038125 
L 679.766761 239.038125 
" clip-path="url(#p32a18b3a55)" style="fill: none; stroke: #5e8faa; stroke-width: 2; stroke-linecap: square"/>
   </g>
   <g id="line2d_62">
    <path d="M 71.039489 205.438125 
L 109.084943 272.638125 
L 147.130398 272.638125 
L 185.175852 272.638125 
L 223.221307 272.638125 
L 261.266761 272.638125 
L 299.312216 272.638125 
L 337.35767 272.638125 
L 375.403125 272.638125 
L 413.44858 272.638125 
L 451.494034 272.638125 
L 489.539489 272.638125 
L 527.584943 272.638125 
L 565.630398 272.638125 
L 603.675852 272.638125 
L 641.721307 272.638125 
L 679.766761 272.638125 
" clip-path="url(#p32a18b3a55)" style="fill: none; stroke: #c92d4b; stroke-width: 2; stroke-linecap: square"/>
   </g>
   <g id="line2d_63">
    <path d="M 109.084943 339.838125 
L 147.130398 306.238125 
L 185.175852 306.238125 
L 223.221307 306.238125 
L 261.266761 306.238125 
L 299.312216 306.238125 
L 337.35767 306.238125 
L 375.403125 306.238125 
L 413.44858 306.238125 
L 451.494034 306.238125 
L 489.539489 306.238125 
L 527.584943 306.238125 
L 565.630398 306.238125 
L 603.675852 306.238125 
L 641.721307 306.238125 
L 679.766761 306.238125 
" clip-path="url(#p32a18b3a55)" style="fill: none; stroke: #b6babd; stroke-width: 2; stroke-linecap: square"/>
   </g>
   <g id="line2d_64">
    <path d="M 71.039489 272.638125 
L 109.084943 306.238125 
L 147.130398 339.838125 
L 185.175852 339.838125 
L 223.221307 339.838125 
L 261.266761 339.838125 
L 299.312216 339.838125 
L 337.35767 339.838125 
L 375.403125 339.838125 
L 413.44858 339.838125 
L 451.494034 339.838125 
L 489.539489 339.838125 
L 527.584943 339.838125 
L 565.630398 339.838125 
L 603.675852 339.838125 
L 641.721307 339.838125 
L 679.766761 339.838125 
" clip-path="url(#p32a18b3a55)" style="fill: none; stroke: #64c4ff; stroke-width: 2; stroke-linecap: square"/>
   </g>
   <g id="patch_3">
    <path d="M 40.603125 354.958125 
L 40.603125 22.318125 
" style="fill: none; stroke: #000000; stroke-width: 0.8; stroke-linejoin: miter; stroke-linecap: square"/>
   </g>
   <g id="patch_4">
    <path d="M 710.203125 354.958125 
L 710.203125 22.318125 
" style="fill: none; stroke: #000000; stroke-width: 0.8; stroke-linejoin: miter; stroke-linecap: square"/>
   </g>
   <g id="patch_5">
    <path d="M 40.603125 354.958125 
L 710.203125 354.958125 
" style="fill: none; stroke: #000000; stroke-width: 0.8; stroke-linejoin: miter; stroke-linecap: square"/>
   </g>
   <g id="patch_6">
    <path d="M 40.603125 22.318125 
L 710.203125 22.318125 
" style="fill: none; stroke: #000000; stroke-width: 0.8; stroke-linejoin: miter; stroke-linecap: square"/>
   </g>
   <g id="text_30">
    <!-- 2020 Constructor Championship Standings -->
    <g transform="translate(246.492188 16.318125) scale(0.12 -0.12)">
     <defs>
      <path id="DejaVuSans-20" transform="scale(0.015625)"/>
      <path id="DejaVuSans-43" d="M 4122 4306 
L 4122 3641 
Q 3803 3938 3442 4084 
Q 3081 4231 2675 4231 
Q 1875 4231 1450 3742 
Q 1025 3253 1025 2328 
Q 1025 1406 1450 917 
Q 1875 428 2675 428 
Q 3081 428 3442 575 
Q 3803 722 4122 1019 
L 4122 359 
Q 3791 134 3420 21 
Q 3050 -91 2638 -91 
Q 1578 -91 968 557 
Q 359 1206 359 2328 
Q 359 3453 968 4101 
Q 1578 4750 2638 4750 
Q 3056 4750 3426 4639 
Q 3797 4528 4122 4306 
z
" transform="scale(0.015625)"/>
      <path id="DejaVuSans-6d" d="M 3328 2828 
Q 3544 3216 3844 3400 
Q 4144 3584 4550 3584 
Q 5097 3584 5394 3201 
Q 5691 2819 5691 2113 
L 5691 0 
L 5113 0 
L 5113 2094 
Q 5113 2597 4934 2840 
Q 4756 3084 4391 3084 
Q 3944 3084 3684 2787 
Q 3425 2491 3425 1978 
L 3425 0 
L 2847 0 
L 2847 2094 
Q 2847 2600 2669 2842 
Q 2491 3084 2119 3084 
Q 1678 3084 1418 2786 
Q 1159 2488 1159 1978 
L 1159 0 
L 581 0 
L 581 3500 
L 1159 3500 
L 1159 2956 
Q 1356 3278 1631 3431 
Q 1906 3584 2284 3584 
Q 2666 3584 2933 3390 
Q 3200 3197 3328 2828 
z
" transform="scale(0.015625)"/>
      <path id="DejaVuSans-53" d="M 3425 4513 
L 3425 3897 
Q 3066 4069 2747 4153 
Q 2428 4238 2131 4238 
Q 1616 4238 1336 4038 
Q 1056 3838 1056 3469 
Q 1056 3159 1242 3001 
Q 1428 2844 1947 2747 
L 2328 2669 
Q 3034 2534 3370 2195 
Q 3706 1856 3706 1288 
Q 3706 609 3251 259 
Q 2797 -91 1919 -91 
Q 1588 -91 1214 -16 
Q 841 59 441 206 
L 441 856 
Q 825 641 1194 531 
Q 1563 422 1919 422 
Q 2459 422 2753 634 
Q 3047 847 3047 1241 
Q 3047 1584 2836 1778 
Q 2625 1972 2144 2069 
L 1759 2144 
Q 1053 2284 737 2584 
Q 422 2884 422 3419 
Q 422 4038 858 4394 
Q 1294 4750 2059 4750 
Q 2388 4750 2728 4690 
Q 3069 4631 3425 4513 
z
" transform="scale(0.015625)"/>
      <path id="DejaVuSans-67" d="M 2906 1791 
Q 2906 2416 2648 2759 
Q 2391 3103 1925 3103 
Q 1463 3103 1205 2759 
Q 947 2416 947 1791 
Q 947 1169 1205 825 
Q 1463 481 1925 481 
Q 2391 481 2648 825 
Q 2906 1169 2906 1791 
z
M 3481 434 
Q 3481 -459 3084 -895 
Q 2688 -1331 1869 -1331 
Q 1566 -1331 1297 -1286 
Q 1028 -1241 775 -1147 
L 775 -588 
Q 1028 -725 1275 -790 
Q 1522 -856 1778 -856 
Q 2344 -856 2625 -561 
Q 2906 -266 2906 331 
L 2906 616 
Q 2728 306 2450 153 
Q 2172 0 1784 0 
Q 1141 0 747 490 
Q 353 981 353 1791 
Q 353 2603 747 3093 
Q 1141 3584 1784 3584 
Q 2172 3584 2450 3431 
Q 2728 3278 2906 2969 
L 2906 3500 
L 3481 3500 
L 3481 434 
z
" transform="scale(0.015625)"/>
     </defs>
     <use xlink:href="#DejaVuSans-32"/>
     <use xlink:href="#DejaVuSans-30" transform="translate(63.623047 0)"/>
     <use xlink:href="#DejaVuSans-32" transform="translate(127.246094 0)"/>
     <use xlink:href="#DejaVuSans-30" transform="translate(190.869141 0)"/>
     <use xlink:href="#DejaVuSans-20" transform="translate(254.492188 0)"/>
     <use xlink:href="#DejaVuSans-43" transform="translate(286.279297 0)"/>
     <use xlink:href="#DejaVuSans-6f" transform="translate(356.103516 0)"/>
     <use xlink:href="#DejaVuSans-6e" transform="translate(417.285156 0)"/>
     <use xlink:href="#DejaVuSans-73" transform="translate(480.664062 0)"/>
     <use xlink:href="#DejaVuSans-74" transform="translate(532.763672 0)"/>
     <use xlink:href="#DejaVuSans-72" transform="translate(571.972656 0)"/>
     <use xlink:href="#DejaVuSans-75" transform="translate(613.085938 0)"/>
     <use xlink:href="#DejaVuSans-63" transform="translate(676.464844 0)"/>
     <use xlink:href="#DejaVuSans-74" transform="translate(731.445312 0)"/>
     <use xlink:href="#DejaVuSans-6f" transform="translate(770.654297 0)"/>
     <use xlink:href="#DejaVuSans-72" transform="translate(831.835938 0)"/>
     <use xlink:href="#DejaVuSans-20" transform="translate(872.949219 0)"/>
     <use xlink:href="#DejaVuSans-43" transform="translate(904.736328 0)"/>
     <use xlink:href="#DejaVuSans-68" transform="translate(974.560547 0)"/>
     <use xlink:href="#DejaVuSans-61" transform="translate(1037.939453 0)"/>
     <use xlink:href="#DejaVuSans-6d" transform="translate(1099.21875 0)"/>
     <use xlink:href="#DejaVuSans-70" transform="translate(1196.630859 0)"/>
     <use xlink:href="#DejaVuSans-69" transform="translate(1260.107422 0)"/>
     <use xlink:href="#DejaVuSans-6f" transform="translate(1287.890625 0)"/>
     <use xlink:href="#DejaVuSans-6e" transform="translate(1349.072266 0)"/>
     <use xlink:href="#DejaVuSans-73" transform="translate(1412.451172 0)"/>
     <use xlink:href="#DejaVuSans-68" transform="translate(1464.550781 0)"/>
     <use xlink:href="#DejaVuSans-69" transform="translate(1527.929688 0)"/>
     <use xlink:href="#DejaVuSans-70" transform="translate(1555.712891 0)"/>
     <use xlink:href="#DejaVuSans-20" transform="translate(1619.189453 0)"/>
     <use xlink:href="#DejaVuSans-53" transform="translate(1650.976562 0)"/>
     <use xlink:href="#DejaVuSans-74" transform="translate(1714.453125 0)"/>
     <use xlink:href="#DejaVuSans-61" transform="translate(1753.662109 0)"/>
     <use xlink:href="#DejaVuSans-6e" transform="translate(1814.941406 0)"/>
     <use xlink:href="#DejaVuSans-64" transform="translate(1878.320312 0)"/>
     <use xlink:href="#DejaVuSans-69" transform="translate(1941.796875 0)"/>
     <use xlink:href="#DejaVuSans-6e" transform="translate(1969.580078 0)"/>
     <use xlink:href="#DejaVuSans-67" transform="translate(2032.958984 0)"/>
     <use xlink:href="#DejaVuSans-73" transform="translate(2096.435547 0)"/>
    </g>
   </g>
   <g id="legend_1">
    <g id="patch_7">
     <path d="M 717.203125 177.099375 
L 811.017187 177.099375 
Q 813.017187 177.099375 813.017187 175.099375 
L 813.017187 29.318125 
Q 813.017187 27.318125 811.017187 27.318125 
L 717.203125 27.318125 
Q 715.203125 27.318125 715.203125 29.318125 
L 715.203125 175.099375 
Q 715.203125 177.099375 717.203125 177.099375 
z
" style="fill: #ffffff; opacity: 0.8; stroke: #cccccc; stroke-linejoin: miter"/>
    </g>
    <g id="line2d_65">
     <path d="M 719.203125 35.416562 
L 729.203125 35.416562 
L 739.203125 35.416562 
" style="fill: none; stroke: #27f4d2; stroke-width: 2; stroke-linecap: square"/>
    </g>
    <g id="text_31">
     <!-- Mercedes -->
     <g transform="translate(747.203125 38.916562) scale(0.1 -0.1)">
      <use xlink:href="#DejaVuSans-4d"/>
      <use xlink:href="#DejaVuSans-65" transform="translate(86.279297 0)"/>
      <use xlink:href="#DejaVuSans-72" transform="translate(147.802734 0)"/>
      <use xlink:href="#DejaVuSans-63" transform="translate(186.666016 0)"/>
      <use xlink:href="#DejaVuSans-65" transform="translate(241.646484 0)"/>
      <use xlink:href="#DejaVuSans-64" transform="translate(303.169922 0)"/>
      <use xlink:href="#DejaVuSans-65" transform="translate(366.646484 0)"/>
      <use xlink:href="#DejaVuSans-73" transform="translate(428.169922 0)"/>
     </g>
    </g>
    <g id="line2d_66">
     <path d="M 719.203125 50.094688 
L 729.203125 50.094688 
L 739.203125 50.094688 
" style="fill: none; stroke: #3671c6; stroke-width: 2; stroke-linecap: square"/>
    </g>
    <g id="text_32">
     <!-- Red Bull -->
     <g transform="translate(747.203125 53.594688) scale(0.1 -0.1)">
      <defs>
       <path id="DejaVuSans-42" d="M 1259 2228 
L 1259 519 
L 2272 519 
Q 2781 519 3026 730 
Q 3272 941 3272 1375 
Q 3272 1813 3026 2020 
Q 2781 2228 2272 2228 
L 1259 2228 
z
M 1259 4147 
L 1259 2741 
L 2194 2741 
Q 2656 2741 2882 2914 
Q 3109 3088 3109 3444 
Q 3109 3797 2882 3972 
Q 2656 4147 2194 4147 
L 1259 4147 
z
M 628 4666 
L 2241 4666 
Q 2963 4666 3353 4366 
Q 3744 4066 3744 3513 
Q 3744 3084 3544 2831 
Q 3344 2578 2956 2516 
Q 3422 2416 3680 2098 
Q 3938 1781 3938 1306 
Q 3938 681 3513 340 
Q 3088 0 2303 0 
L 628 0 
L 628 4666 
z
" transform="scale(0.015625)"/>
       <path id="DejaVuSans-6c" d="M 603 4863 
L 1178 4863 
L 1178 0 
L 603 0 
L 603 4863 
z
" transform="scale(0.015625)"/>
      </defs>
      <use xlink:href="#DejaVuSans-52"/>
      <use xlink:href="#DejaVuSans-65" transform="translate(64.982422 0)"/>
      <use xlink:href="#DejaVuSans-64" transform="translate(126.505859 0)"/>
      <use xlink:href="#DejaVuSans-20" transform="translate(189.982422 0)"/>
      <use xlink:href="#DejaVuSans-42" transform="translate(221.769531 0)"/>
      <use xlink:href="#DejaVuSans-75" transform="translate(290.373047 0)"/>
      <use xlink:href="#DejaVuSans-6c" transform="translate(353.751953 0)"/>
      <use xlink:href="#DejaVuSans-6c" transform="translate(381.535156 0)"/>
     </g>
    </g>
    <g id="line2d_67">
     <path d="M 719.203125 64.772812 
L 729.203125 64.772812 
L 739.203125 64.772812 
" style="fill: none; stroke: #ff8000; stroke-width: 2; stroke-linecap: square"/>
    </g>
    <g id="text_33">
     <!-- McLaren -->
     <g transform="translate(747.203125 68.272812) scale(0.1 -0.1)">
      <defs>
       <path id="DejaVuSans-4c" d="M 628 4666 
L 1259 4666 
L 1259 531 
L 3531 531 
L 3531 0 
L 628 0 
L 628 4666 
z
" transform="scale(0.015625)"/>
      </defs>
      <use xlink:href="#DejaVuSans-4d"/>
      <use xlink:href="#DejaVuSans-63" transform="translate(86.279297 0)"/>
      <use xlink:href="#DejaVuSans-4c" transform="translate(141.259766 0)"/>
      <use xlink:href="#DejaVuSans-61" transform="translate(196.972656 0)"/>
      <use xlink:href="#DejaVuSans-72" transform="translate(258.251953 0)"/>
      <use xlink:href="#DejaVuSans-65" transform="translate(297.115234 0)"/>
      <use xlink:href="#DejaVuSans-6e" transform="translate(358.638672 0)"/>
     </g>
    </g>
    <g id="line2d_68">
     <path d="M 719.203125 79.450938 
L 729.203125 79.450938 
L 739.203125 79.450938 
" style="fill: none; stroke: #f596c8; stroke-width: 2; stroke-linecap: square"/>
    </g>
    <g id="text_34">
     <!-- Racing Point -->
     <g transform="translate(747.203125 82.950938) scale(0.1 -0.1)">
      <defs>
       <path id="DejaVuSans-50" d="M 1259 4147 
L 1259 2394 
L 2053 2394 
Q 2494 2394 2734 2622 
Q 2975 2850 2975 3272 
Q 2975 3691 2734 3919 
Q 2494 4147 2053 4147 
L 1259 4147 
z
M 628 4666 
L 2053 4666 
Q 2838 4666 3239 4311 
Q 3641 3956 3641 3272 
Q 3641 2581 3239 2228 
Q 2838 1875 2053 1875 
L 1259 1875 
L 1259 0 
L 628 0 
L 628 4666 
z
" transform="scale(0.015625)"/>
      </defs>
      <use xlink:href="#DejaVuSans-52"/>
      <use xlink:href="#DejaVuSans-61" transform="translate(67.232422 0)"/>
      <use xlink:href="#DejaVuSans-63" transform="translate(128.511719 0)"/>
      <use xlink:href="#DejaVuSans-69" transform="translate(183.492188 0)"/>
      <use xlink:href="#DejaVuSans-6e" transform="translate(211.275391 0)"/>
      <use xlink:href="#DejaVuSans-67" transform="translate(274.654297 0)"/>
      <use xlink:href="#DejaVuSans-20" transform="translate(338.130859 0)"/>
      <use xlink:href="#DejaVuSans-50" transform="translate(369.917969 0)"/>
      <use xlink:href="#DejaVuSans-6f" transform="translate(426.595703 0)"/>
      <use xlink:href="#DejaVuSans-69" transform="translate(487.777344 0)"/>
      <use xlink:href="#DejaVuSans-6e" transform="translate(515.560547 0)"/>
      <use xlink:href="#DejaVuSans-74" transform="translate(578.939453 0)"/>
     </g>
    </g>
    <g id="line2d_69">
     <path d="M 719.203125 94.129063 
L 729.203125 94.129063 
L 739.203125 94.129063 
" style="fill: none; stroke: #fff500; stroke-width: 2; stroke-linecap: square"/>
    </g>
    <g id="text_35">
     <!-- Renault -->
     <g transform="translate(747.203125 97.629063) scale(0.1 -0.1)">
      <use xlink:href="#DejaVuSans-52"/>
      <use xlink:href="#DejaVuSans-65" transform="translate(64.982422 0)"/>
      <use xlink:href="#DejaVuSans-6e" transform="translate(126.505859 0)"/>
      <use xlink:href="#DejaVuSans-61" transform="translate(189.884766 0)"/>
      <use xlink:href="#DejaVuSans-75" transform="translate(251.164062 0)"/>
      <use xlink:href="#DejaVuSans-6c" transform="translate(314.542969 0)"/>
      <use xlink:href="#DejaVuSans-74" transform="translate(342.326172 0)"/>
     </g>
    </g>
    <g id="line2d_70">
     <path d="M 719.203125 108.807187 
L 729.203125 108.807187 
L 739.203125 108.807187 
" style="fill: none; stroke: #e8002d; stroke-width: 2; stroke-linecap: square"/>
    </g>
    <g id="text_36">
     <!-- Ferrari -->
     <g transform="translate(747.203125 112.307187) scale(0.1 -0.1)">
      <defs>
       <path id="DejaVuSans-46" d="M 628 4666 
L 3309 4666 
L 3309 4134 
L 1259 4134 
L 1259 2759 
L 3109 2759 
L 3109 2228 
L 1259 2228 
L 1259 0 
L 628 0 
L 628 4666 
z
" transform="scale(0.015625)"/>
      </defs>
      <use xlink:href="#DejaVuSans-46"/>
      <use xlink:href="#DejaVuSans-65" transform="translate(52.019531 0)"/>
      <use xlink:href="#DejaVuSans-72" transform="translate(113.542969 0)"/>
      <use xlink:href="#DejaVuSans-72" transform="translate(152.90625 0)"/>
      <use xlink:href="#DejaVuSans-61" transform="translate(194.019531 0)"/>
      <use xlink:href="#DejaVuSans-72" transform="translate(255.298828 0)"/>
      <use xlink:href="#DejaVuSans-69" transform="translate(296.412109 0)"/>
     </g>
    </g>
    <g id="line2d_71">
     <path d="M 719.203125 123.485313 
L 729.203125 123.485313 
L 739.203125 123.485313 
" style="fill: none; stroke: #5e8faa; stroke-width: 2; stroke-linecap: square"/>
    </g>
    <g id="text_37">
     <!-- AlphaTauri -->
     <g transform="translate(747.203125 126.985313) scale(0.1 -0.1)">
      <defs>
       <path id="DejaVuSans-41" d="M 2188 4044 
L 1331 1722 
L 3047 1722 
L 2188 4044 
z
M 1831 4666 
L 2547 4666 
L 4325 0 
L 3669 0 
L 3244 1197 
L 1141 1197 
L 716 0 
L 50 0 
L 1831 4666 
z
" transform="scale(0.015625)"/>
       <path id="DejaVuSans-54" d="M -19 4666 
L 3928 4666 
L 3928 4134 
L 2272 4134 
L 2272 0 
L 1638 0 
L 1638 4134 
L -19 4134 
L -19 4666 
z
" transform="scale(0.015625)"/>
      </defs>
      <use xlink:href="#DejaVuSans-41"/>
      <use xlink:href="#DejaVuSans-6c" transform="translate(68.408203 0)"/>
      <use xlink:href="#DejaVuSans-70" transform="translate(96.191406 0)"/>
      <use xlink:href="#DejaVuSans-68" transform="translate(159.667969 0)"/>
      <use xlink:href="#DejaVuSans-61" transform="translate(223.046875 0)"/>
      <use xlink:href="#DejaVuSans-54" transform="translate(284.326172 0)"/>
      <use xlink:href="#DejaVuSans-61" transform="translate(328.910156 0)"/>
      <use xlink:href="#DejaVuSans-75" transform="translate(390.189453 0)"/>
      <use xlink:href="#DejaVuSans-72" transform="translate(453.568359 0)"/>
      <use xlink:href="#DejaVuSans-69" transform="translate(494.681641 0)"/>
     </g>
    </g>
    <g id="line2d_72">
     <path d="M 719.203125 138.163437 
L 729.203125 138.163437 
L 739.203125 138.163437 
" style="fill: none; stroke: #c92d4b; stroke-width: 2; stroke-linecap: square"/>
    </g>
    <g id="text_38">
     <!-- Alfa Romeo -->
     <g transform="translate(747.203125 141.663437) scale(0.1 -0.1)">
      <use xlink:href="#DejaVuSans-41"/>
      <use xlink:href="#DejaVuSans-6c" transform="translate(68.408203 0)"/>
      <use xlink:href="#DejaVuSans-66" transform="translate(96.191406 0)"/>
      <use xlink:href="#DejaVuSans-61" transform="translate(131.396484 0)"/>
      <use xlink:href="#DejaVuSans-20" transform="translate(192.675781 0)"/>
      <use xlink:href="#DejaVuSans-52" transform="translate(224.462891 0)"/>
      <use xlink:href="#DejaVuSans-6f" transform="translate(289.445312 0)"/>
      <use xlink:href="#DejaVuSans-6d" transform="translate(350.626953 0)"/>
      <use xlink:href="#DejaVuSans-65" transform="translate(448.039062 0)"/>
      <use xlink:href="#DejaVuSans-6f" transform="translate(509.5625 0)"/>
     </g>
    </g>
    <g id="line2d_73">
     <path d="M 719.203125 152.841563 
L 729.203125 152.841563 
L 739.203125 152.841563 
" style="fill: none; stroke: #b6babd; stroke-width: 2; stroke-linecap: square"/>
    </g>
    <g id="text_39">
     <!-- Haas -->
     <g transform="translate(747.203125 156.341563) scale(0.1 -0.1)">
      <defs>
       <path id="DejaVuSans-48" d="M 628 4666 
L 1259 4666 
L 1259 2753 
L 3553 2753 
L 3553 4666 
L 4184 4666 
L 4184 0 
L 3553 0 
L 3553 2222 
L 1259 2222 
L 1259 0 
L 628 0 
L 628 4666 
z
" transform="scale(0.015625)"/>
      </defs>
      <use xlink:href="#DejaVuSans-48"/>
      <use xlink:href="#DejaVuSans-61" transform="translate(75.195312 0)"/>
      <use xlink:href="#DejaVuSans-61" transform="translate(136.474609 0)"/>
      <use xlink:href="#DejaVuSans-73" transform="translate(197.753906 0)"/>
     </g>
    </g>
    <g id="line2d_74">
     <path d="M 719.203125 167.519687 
L 729.203125 167.519687 
L 739.203125 167.519687 
" style="fill: none; stroke: #64c4ff; stroke-width: 2; stroke-linecap: square"/>
    </g>
    <g id="text_40">
     <!-- Williams -->
     <g transform="translate(747.203125 171.019687) scale(0.1 -0.1)">
      <defs>
       <path id="DejaVuSans-57" d="M 213 4666 
L 850 4666 
L 1831 722 
L 2809 4666 
L 3519 4666 
L 4500 722 
L 5478 4666 
L 6119 4666 
L 4947 0 
L 4153 0 
L 3169 4050 
L 2175 0 
L 1381 0 
L 213 4666 
z
" transform="scale(0.015625)"/>
      </defs>
      <use xlink:href="#DejaVuSans-57"/>
      <use xlink:href="#DejaVuSans-69" transform="translate(96.626953 0)"/>
      <use xlink:href="#DejaVuSans-6c" transform="translate(124.410156 0)"/>
      <use xlink:href="#DejaVuSans-6c" transform="translate(152.193359 0)"/>
      <use xlink:href="#DejaVuSans-69" transform="translate(179.976562 0)"/>
      <use xlink:href="#DejaVuSans-61" transform="translate(207.759766 0)"/>
      <use xlink:href="#DejaVuSans-6d" transform="translate(269.039062 0)"/>
      <use xlink:href="#DejaVuSans-73" transform="translate(366.451172 0)"/>
     </g>
    </g>
   </g>
  </g>
 </g>
 <defs>
  <clipPath id="p32a18b3a55">
   <rect x="40.603125" y="22.318125" width="669.6" height="332.64"/>
  </clipPath>
 </defs>
</svg>
